/* XPM */
static char *_7731_dbb18ec13b01e73500d6c5ca1fb802610ac482cf1ecda68e45150db6145d0c74[] = {
/* columns rows colors chars-per-pixel */
"128 128 2 1 ",
"  c #FA5B04",
". c None",
/* pixels */
"........................................................                ........................................................",
"..................................................                            ..................................................",
"..............................................                                    ..............................................",
"...........................................                                          ...........................................",
"........................................                                                ........................................",
"......................................                                                    ......................................",
"....................................                                                        ....................................",
"..................................                                                            ..................................",
"................................                                                                ................................",
"..............................                                                                    ..............................",
".............................                                                                      .............................",
"...........................                                                                          ...........................",
"..........................                                                                            ..........................",
".........................                                                                              .........................",
".......................                                                                                  .......................",
"......................                                                                                    ......................",
".....................                                                                                      .....................",
"....................                                                                                        ....................",
"...................                                                                                          ...................",
"..................                                 .....                                                      ..................",
".................                                .........                                                     .................",
"................                                ...........                                                     ................",
"...............                                .............                       .....                         ...............",
"..............                                ...............                    .........                        ..............",
"..............                                ................                 ............                       ..............",
".............                                .................                ..............                       .............",
"............                                 ..................              ...............                        ............",
"...........                                  ..................             .................                        ...........",
"...........                                 ...................            ..................                        ...........",
"..........                                  ....................           ..................                         ..........",
".........                                   ....................          ....................                         .........",
".........                                   ....................         .....................                         .........",
"........                                    ....................         .....................                          ........",
"........                                   ......................       ......................                          ........",
".......                                    ......................       ......................                           .......",
".......                 ......             ......................       ......................                           .......",
"......                ..........           ......................      ......................                             ......",
"......               .............         ......................      ......................                             ......",
".....                ..............         .....................      ......................                              .....",
".....               ................        .....................     .......................                              .....",
"....                ................        .....................     ......................                                ....",
"....               ..................       .....................     ......................                                ....",
"....               ...................      ....................      ......................                                ....",
"...                ...................       ...................      .....................                                  ...",
"...                ....................      ...................      .....................             ....                 ...",
"...                .....................     ...................      ....................           .........               ...",
"..                 .....................      .................       ....................          ...........               ..",
"..                 .....................      .................       ...................         ..............              ..",
"..                 ......................      ...............        ..................         ................             ..",
"..                 ......................       ..............        ..................        .................             ..",
".                  ......................       .............          ................        ..................              .",
".                  .......................       ...........           ...............        ....................             .",
".                   ......................         ........             .............        .....................             .",
".                   ......................           ....                ..........         ......................             .",
".                   ......................                                ........          ......................             .",
".                   ......................                                   .             .......................              ",
"                     .....................                  ........                       .......................              ",
"                     .....................                ...........                     .......................               ",
"                      ....................               ..............                   .......................               ",
"                      ....................              ................                 ........................               ",
"                       ...................             ..................                ........................               ",
"                        ..................            ...................                .......................                ",
"                        .................            .....................              ........................                ",
"                         ................           .......................             .......................                 ",
"                          ..............            .......................             .......................                 ",
"                           .............           .........................            ......................                  ",
"                            ...........           ..........................            ......................                  ",
"                              .......            ............................           .....................                   ",
"                                                .............................           ....................                    ",
"                                               ...............................          ...................                     ",
"                                              .................................         ..................                      ",
"                                             ..................................          ................                       ",
".                                           ....................................         ...............                        ",
".                                         .......................................         .............                        .",
".                                       .........................................          ..........                          .",
".                                     ............................................          .......                            .",
".                                   ...............................................                                            .",
".                                  ................................................                                            .",
"..                               ...................................................                                          ..",
"..                              .....................................................                                         ..",
"..                             .......................................................                                        ..",
"..                            .........................................................                                       ..",
"...                           ..........................................................                                     ...",
"...                          ............................................................                                    ...",
"...                          .............................................................                                   ...",
"....                        ...............................................................                                 ....",
"....                        ...............................................................                                 ....",
"....                        ................................................................                                ....",
".....                       ................................................................                               .....",
".....                       .................................................................                              .....",
"......                      .................................................................                             ......",
"......                      ..................................................................                            ......",
".......                     ..................................................................                           .......",
".......                     ..................................................................                           .......",
"........                    ..................................................................                          ........",
"........                     .................................................................                          ........",
".........                    .................................................................                         .........",
".........                     ................................................................                         .........",
"..........                    ................................................................                        ..........",
"...........                    ...............................................................                       ...........",
"...........                     ..............................................................                       ...........",
"............                     ............................................................                       ............",
".............                      ..........................................................                      .............",
"..............                       .......................................................                       .............",
"..............                         ....................................................                       ..............",
"...............                             ..............................................                       ...............",
"................                                            .............................                       ................",
".................                                                  ....................                        .................",
"..................                                                       ...........                          ..................",
"...................                                                                                          ...................",
"....................                                                                                        ....................",
".....................                                                                                      .....................",
"......................                                                                                    ......................",
".......................                                                                                  .......................",
".........................                                                                               ........................",
"..........................                                                                            ..........................",
"...........................                                                                          ...........................",
".............................                                                                      .............................",
"..............................                                                                    ..............................",
"................................                                                                ................................",
"..................................                                                            ..................................",
"....................................                                                        ....................................",
"......................................                                                    ......................................",
"........................................                                                ........................................",
"...........................................                                          ...........................................",
"..............................................                                    ..............................................",
"..................................................                            ..................................................",
".......................................................                  ......................................................."
};
