/* XPM */
static char *_6663_a7bdb6915f8a0267ea08cb800c89d5f2aa6603fe9466345aec921a4ce75beeca[] = {
/* columns rows colors chars-per-pixel */
"64 64 2 1 ",
"  c #FA5B04",
". c None",
/* pixels */
"..........................            ..........................",
"......................                    ......................",
"....................                        ....................",
".................                              .................",
"................                                ................",
"..............                                    ..............",
".............                                      .............",
"...........                                          ...........",
"..........                                            ..........",
".........                 .                            .........",
"........                .....                           ........",
".......                .......           ....            .......",
".......                ........        .......           .......",
"......                .........       ........            ......",
".....                 ..........      .........            .....",
".....                 ..........     ..........            .....",
"....                  ..........    ...........             ....",
"...         ...       ..........    ...........              ...",
"...        .....      ..........   ............              ...",
"...       ........    ..........   ...........               ...",
"..        ........    ..........   ...........                ..",
"..       ..........   ..........   ...........                ..",
".        ...........   .........   ..........      ....        .",
".        ...........   .........   ..........    .......       .",
".        ...........    .......    .........    ........       .",
".         ...........   ......      .......    ..........      .",
"          ...........     ...       ......    ...........       ",
"          ...........                 ..      ...........       ",
"           ..........         ....           ............       ",
"           ..........       ........         ............       ",
"            .........      ..........       ............        ",
"            .........     ...........       ............        ",
"             .......      ............      ...........         ",
"               ....      .............      ...........         ",
"                        ...............     ..........          ",
"                       ................     .........           ",
"                     ...................     .......            ",
"                    .....................     ....              ",
".                 ........................                     .",
".               ..........................                     .",
".              ............................                    .",
".              .............................                   .",
"..            ...............................                 ..",
"..            ................................                ..",
"...           ................................                ..",
"...           .................................              ...",
"...           .................................              ...",
"....          .................................             ....",
".....          ................................            .....",
".....          ................................            .....",
"......          ...............................           ......",
".......           ............................           .......",
".......             .........................            .......",
"........                        ............            ........",
".........                             ...              .........",
"..........                                            ..........",
"...........                                          ...........",
".............                                      .............",
"..............                                    ..............",
"................                                ................",
".................                              .................",
"....................                         ...................",
"......................                    ......................",
"..........................            .........................."
};
